<mxfile host="app.diagrams.net" modified="2022-12-03T17:08:41.018Z" agent="5.0 (Macintosh; Intel Mac OS X 10_15_7) AppleWebKit/537.36 (KHTML, like Gecko) Chrome/108.0.0.0 Safari/537.36" etag="90oUFaJXqzVr8JIXlcJg" version="20.6.0" type="github">
  <diagram id="C5RBs43oDa-KdzZeNtuy" name="Page-1">
    <mxGraphModel dx="1028" dy="621" grid="1" gridSize="10" guides="1" tooltips="1" connect="1" arrows="1" fold="1" page="1" pageScale="1" pageWidth="827" pageHeight="1169" math="0" shadow="0">
      <root>
        <mxCell id="WIyWlLk6GJQsqaUBKTNV-0" />
        <mxCell id="WIyWlLk6GJQsqaUBKTNV-1" parent="WIyWlLk6GJQsqaUBKTNV-0" />
        <mxCell id="zkfFHV4jXpPFQw0GAbJ--0" value="Enrolment" style="swimlane;fontStyle=2;align=center;verticalAlign=top;childLayout=stackLayout;horizontal=1;startSize=30;horizontalStack=0;resizeParent=1;resizeLast=0;collapsible=1;marginBottom=0;rounded=0;shadow=0;strokeWidth=1;" parent="WIyWlLk6GJQsqaUBKTNV-1" vertex="1">
          <mxGeometry x="120" y="470" width="220" height="200" as="geometry">
            <mxRectangle x="230" y="140" width="160" height="26" as="alternateBounds" />
          </mxGeometry>
        </mxCell>
        <mxCell id="_Dk9jYlxePAkPZQT1lbU-5" value="- 현재 로그인 중인 사람: Person" style="text;align=left;verticalAlign=top;spacingLeft=4;spacingRight=4;overflow=hidden;rotatable=0;points=[[0,0.5],[1,0.5]];portConstraint=eastwest;" vertex="1" parent="zkfFHV4jXpPFQw0GAbJ--0">
          <mxGeometry y="30" width="220" height="26" as="geometry" />
        </mxCell>
        <mxCell id="_Dk9jYlxePAkPZQT1lbU-61" value="- 학생 관리 클래스: StudentImpl" style="text;align=left;verticalAlign=top;spacingLeft=4;spacingRight=4;overflow=hidden;rotatable=0;points=[[0,0.5],[1,0.5]];portConstraint=eastwest;" vertex="1" parent="zkfFHV4jXpPFQw0GAbJ--0">
          <mxGeometry y="56" width="220" height="26" as="geometry" />
        </mxCell>
        <mxCell id="_Dk9jYlxePAkPZQT1lbU-62" value="- 교수 관리 클래스: ProfessorImpl" style="text;align=left;verticalAlign=top;spacingLeft=4;spacingRight=4;overflow=hidden;rotatable=0;points=[[0,0.5],[1,0.5]];portConstraint=eastwest;" vertex="1" parent="zkfFHV4jXpPFQw0GAbJ--0">
          <mxGeometry y="82" width="220" height="26" as="geometry" />
        </mxCell>
        <mxCell id="_Dk9jYlxePAkPZQT1lbU-68" value="- 강의 관리 클래스: LectureImpl" style="text;align=left;verticalAlign=top;spacingLeft=4;spacingRight=4;overflow=hidden;rotatable=0;points=[[0,0.5],[1,0.5]];portConstraint=eastwest;" vertex="1" parent="zkfFHV4jXpPFQw0GAbJ--0">
          <mxGeometry y="108" width="220" height="26" as="geometry" />
        </mxCell>
        <mxCell id="zkfFHV4jXpPFQw0GAbJ--4" value="" style="line;html=1;strokeWidth=1;align=left;verticalAlign=middle;spacingTop=-1;spacingLeft=3;spacingRight=3;rotatable=0;labelPosition=right;points=[];portConstraint=eastwest;strokeColor=default;" parent="zkfFHV4jXpPFQw0GAbJ--0" vertex="1">
          <mxGeometry y="134" width="220" height="10" as="geometry" />
        </mxCell>
        <mxCell id="zkfFHV4jXpPFQw0GAbJ--5" value="+ 로그인 (String, String): void" style="text;align=left;verticalAlign=top;spacingLeft=4;spacingRight=4;overflow=hidden;rotatable=0;points=[[0,0.5],[1,0.5]];portConstraint=eastwest;" parent="zkfFHV4jXpPFQw0GAbJ--0" vertex="1">
          <mxGeometry y="144" width="220" height="26" as="geometry" />
        </mxCell>
        <mxCell id="_Dk9jYlxePAkPZQT1lbU-6" value="+ 로그아웃 (): void" style="text;align=left;verticalAlign=top;spacingLeft=4;spacingRight=4;overflow=hidden;rotatable=0;points=[[0,0.5],[1,0.5]];portConstraint=eastwest;" vertex="1" parent="zkfFHV4jXpPFQw0GAbJ--0">
          <mxGeometry y="170" width="220" height="26" as="geometry" />
        </mxCell>
        <mxCell id="_Dk9jYlxePAkPZQT1lbU-26" style="edgeStyle=orthogonalEdgeStyle;rounded=0;orthogonalLoop=1;jettySize=auto;html=1;exitX=0.5;exitY=1;exitDx=0;exitDy=0;dashed=1;" edge="1" parent="WIyWlLk6GJQsqaUBKTNV-1" source="_Dk9jYlxePAkPZQT1lbU-9" target="_Dk9jYlxePAkPZQT1lbU-23">
          <mxGeometry relative="1" as="geometry">
            <Array as="points">
              <mxPoint x="414" y="110" />
              <mxPoint x="259" y="110" />
            </Array>
          </mxGeometry>
        </mxCell>
        <mxCell id="_Dk9jYlxePAkPZQT1lbU-9" value="&lt;&lt;interface&gt;&gt;&#xa;Person" style="swimlane;fontStyle=2;align=center;verticalAlign=top;childLayout=stackLayout;horizontal=1;startSize=40;horizontalStack=0;resizeParent=1;resizeLast=0;collapsible=1;marginBottom=0;rounded=0;shadow=0;strokeWidth=1;" vertex="1" parent="WIyWlLk6GJQsqaUBKTNV-1">
          <mxGeometry x="315" y="10" width="198" height="92" as="geometry">
            <mxRectangle x="230" y="140" width="160" height="26" as="alternateBounds" />
          </mxGeometry>
        </mxCell>
        <mxCell id="_Dk9jYlxePAkPZQT1lbU-19" value="- 학번: Integer" style="text;align=left;verticalAlign=top;spacingLeft=4;spacingRight=4;overflow=hidden;rotatable=0;points=[[0,0.5],[1,0.5]];portConstraint=eastwest;" vertex="1" parent="_Dk9jYlxePAkPZQT1lbU-9">
          <mxGeometry y="40" width="198" height="26" as="geometry" />
        </mxCell>
        <mxCell id="_Dk9jYlxePAkPZQT1lbU-20" value="- 이름: String" style="text;align=left;verticalAlign=top;spacingLeft=4;spacingRight=4;overflow=hidden;rotatable=0;points=[[0,0.5],[1,0.5]];portConstraint=eastwest;" vertex="1" parent="_Dk9jYlxePAkPZQT1lbU-9">
          <mxGeometry y="66" width="198" height="24" as="geometry" />
        </mxCell>
        <mxCell id="_Dk9jYlxePAkPZQT1lbU-23" value="Student" style="swimlane;fontStyle=2;align=center;verticalAlign=top;childLayout=stackLayout;horizontal=1;startSize=30;horizontalStack=0;resizeParent=1;resizeLast=0;collapsible=1;marginBottom=0;rounded=0;shadow=0;strokeWidth=1;strokeColor=default;" vertex="1" parent="WIyWlLk6GJQsqaUBKTNV-1">
          <mxGeometry x="160" y="150" width="198" height="90" as="geometry">
            <mxRectangle x="230" y="140" width="160" height="26" as="alternateBounds" />
          </mxGeometry>
        </mxCell>
        <mxCell id="_Dk9jYlxePAkPZQT1lbU-25" value="- 재학 상태: boolean" style="text;align=left;verticalAlign=top;spacingLeft=4;spacingRight=4;overflow=hidden;rotatable=0;points=[[0,0.5],[1,0.5]];portConstraint=eastwest;" vertex="1" parent="_Dk9jYlxePAkPZQT1lbU-23">
          <mxGeometry y="30" width="198" height="24" as="geometry" />
        </mxCell>
        <mxCell id="_Dk9jYlxePAkPZQT1lbU-27" value="Professor" style="swimlane;fontStyle=2;align=center;verticalAlign=top;childLayout=stackLayout;horizontal=1;startSize=30;horizontalStack=0;resizeParent=1;resizeLast=0;collapsible=1;marginBottom=0;rounded=0;shadow=0;strokeWidth=1;strokeColor=default;" vertex="1" parent="WIyWlLk6GJQsqaUBKTNV-1">
          <mxGeometry x="490" y="150" width="198" height="90" as="geometry">
            <mxRectangle x="230" y="140" width="160" height="26" as="alternateBounds" />
          </mxGeometry>
        </mxCell>
        <mxCell id="_Dk9jYlxePAkPZQT1lbU-28" value="- 교수 평판: reputation" style="text;align=left;verticalAlign=top;spacingLeft=4;spacingRight=4;overflow=hidden;rotatable=0;points=[[0,0.5],[1,0.5]];portConstraint=eastwest;" vertex="1" parent="_Dk9jYlxePAkPZQT1lbU-27">
          <mxGeometry y="30" width="198" height="24" as="geometry" />
        </mxCell>
        <mxCell id="_Dk9jYlxePAkPZQT1lbU-30" value="- 강의: Lecture[]" style="text;align=left;verticalAlign=top;spacingLeft=4;spacingRight=4;overflow=hidden;rotatable=0;points=[[0,0.5],[1,0.5]];portConstraint=eastwest;" vertex="1" parent="_Dk9jYlxePAkPZQT1lbU-27">
          <mxGeometry y="54" width="198" height="24" as="geometry" />
        </mxCell>
        <mxCell id="_Dk9jYlxePAkPZQT1lbU-29" style="edgeStyle=orthogonalEdgeStyle;rounded=0;orthogonalLoop=1;jettySize=auto;html=1;exitX=0.5;exitY=1;exitDx=0;exitDy=0;dashed=1;entryX=0.5;entryY=0;entryDx=0;entryDy=0;" edge="1" parent="WIyWlLk6GJQsqaUBKTNV-1" source="_Dk9jYlxePAkPZQT1lbU-9" target="_Dk9jYlxePAkPZQT1lbU-27">
          <mxGeometry relative="1" as="geometry">
            <mxPoint x="414" y="102" as="sourcePoint" />
            <mxPoint x="259" y="150" as="targetPoint" />
            <Array as="points">
              <mxPoint x="414" y="110" />
              <mxPoint x="590" y="110" />
            </Array>
          </mxGeometry>
        </mxCell>
        <mxCell id="_Dk9jYlxePAkPZQT1lbU-32" value="reputation" style="swimlane;fontStyle=2;align=center;verticalAlign=top;childLayout=stackLayout;horizontal=1;startSize=30;horizontalStack=0;resizeParent=1;resizeLast=0;collapsible=1;marginBottom=0;rounded=0;shadow=0;strokeWidth=1;" vertex="1" parent="WIyWlLk6GJQsqaUBKTNV-1">
          <mxGeometry x="670" y="40" width="112" height="70" as="geometry">
            <mxRectangle x="230" y="140" width="160" height="26" as="alternateBounds" />
          </mxGeometry>
        </mxCell>
        <mxCell id="_Dk9jYlxePAkPZQT1lbU-33" value="- 점수: Integer" style="text;align=left;verticalAlign=top;spacingLeft=4;spacingRight=4;overflow=hidden;rotatable=0;points=[[0,0.5],[1,0.5]];portConstraint=eastwest;" vertex="1" parent="_Dk9jYlxePAkPZQT1lbU-32">
          <mxGeometry y="30" width="112" height="26" as="geometry" />
        </mxCell>
        <mxCell id="_Dk9jYlxePAkPZQT1lbU-41" value="Lecture" style="swimlane;fontStyle=2;align=center;verticalAlign=top;childLayout=stackLayout;horizontal=1;startSize=30;horizontalStack=0;resizeParent=1;resizeLast=0;collapsible=1;marginBottom=0;rounded=0;shadow=0;strokeWidth=1;" vertex="1" parent="WIyWlLk6GJQsqaUBKTNV-1">
          <mxGeometry x="530" y="360" width="198" height="160" as="geometry">
            <mxRectangle x="230" y="140" width="160" height="26" as="alternateBounds" />
          </mxGeometry>
        </mxCell>
        <mxCell id="_Dk9jYlxePAkPZQT1lbU-42" value="- 강의하는 교수: Professor" style="text;align=left;verticalAlign=top;spacingLeft=4;spacingRight=4;overflow=hidden;rotatable=0;points=[[0,0.5],[1,0.5]];portConstraint=eastwest;" vertex="1" parent="_Dk9jYlxePAkPZQT1lbU-41">
          <mxGeometry y="30" width="198" height="26" as="geometry" />
        </mxCell>
        <mxCell id="_Dk9jYlxePAkPZQT1lbU-50" value="- 과목 코드: String" style="text;align=left;verticalAlign=top;spacingLeft=4;spacingRight=4;overflow=hidden;rotatable=0;points=[[0,0.5],[1,0.5]];portConstraint=eastwest;" vertex="1" parent="_Dk9jYlxePAkPZQT1lbU-41">
          <mxGeometry y="56" width="198" height="26" as="geometry" />
        </mxCell>
        <mxCell id="_Dk9jYlxePAkPZQT1lbU-51" value="- 과목 평판: reputation" style="text;align=left;verticalAlign=top;spacingLeft=4;spacingRight=4;overflow=hidden;rotatable=0;points=[[0,0.5],[1,0.5]];portConstraint=eastwest;" vertex="1" parent="_Dk9jYlxePAkPZQT1lbU-41">
          <mxGeometry y="82" width="198" height="26" as="geometry" />
        </mxCell>
        <mxCell id="_Dk9jYlxePAkPZQT1lbU-52" value="- 수강정원: Integer" style="text;align=left;verticalAlign=top;spacingLeft=4;spacingRight=4;overflow=hidden;rotatable=0;points=[[0,0.5],[1,0.5]];portConstraint=eastwest;" vertex="1" parent="_Dk9jYlxePAkPZQT1lbU-41">
          <mxGeometry y="108" width="198" height="26" as="geometry" />
        </mxCell>
        <mxCell id="_Dk9jYlxePAkPZQT1lbU-53" value="- 수강하는 학생: student[]" style="text;align=left;verticalAlign=top;spacingLeft=4;spacingRight=4;overflow=hidden;rotatable=0;points=[[0,0.5],[1,0.5]];portConstraint=eastwest;" vertex="1" parent="_Dk9jYlxePAkPZQT1lbU-41">
          <mxGeometry y="134" width="198" height="26" as="geometry" />
        </mxCell>
        <mxCell id="_Dk9jYlxePAkPZQT1lbU-54" value="" style="endArrow=none;endFill=0;html=1;edgeStyle=orthogonalEdgeStyle;align=left;verticalAlign=top;rounded=0;exitX=1;exitY=0.5;exitDx=0;exitDy=0;entryX=0.5;entryY=1;entryDx=0;entryDy=0;" edge="1" parent="WIyWlLk6GJQsqaUBKTNV-1" source="_Dk9jYlxePAkPZQT1lbU-28" target="_Dk9jYlxePAkPZQT1lbU-32">
          <mxGeometry x="-0.4313" y="-22" relative="1" as="geometry">
            <mxPoint x="353" y="440" as="sourcePoint" />
            <mxPoint x="513" y="440" as="targetPoint" />
            <mxPoint as="offset" />
          </mxGeometry>
        </mxCell>
        <mxCell id="_Dk9jYlxePAkPZQT1lbU-55" value="1" style="edgeLabel;resizable=0;html=1;align=left;verticalAlign=bottom;dashed=1;strokeColor=default;" connectable="0" vertex="1" parent="_Dk9jYlxePAkPZQT1lbU-54">
          <mxGeometry x="-1" relative="1" as="geometry">
            <mxPoint x="22" y="-62" as="offset" />
          </mxGeometry>
        </mxCell>
        <mxCell id="_Dk9jYlxePAkPZQT1lbU-77" value="0..1" style="edgeLabel;resizable=0;html=1;align=left;verticalAlign=bottom;dashed=1;strokeColor=default;" connectable="0" vertex="1" parent="_Dk9jYlxePAkPZQT1lbU-54">
          <mxGeometry x="-1" relative="1" as="geometry">
            <mxPoint x="-398" y="-132" as="offset" />
          </mxGeometry>
        </mxCell>
        <mxCell id="_Dk9jYlxePAkPZQT1lbU-81" value="1" style="edgeLabel;resizable=0;html=1;align=left;verticalAlign=bottom;dashed=1;strokeColor=default;" connectable="0" vertex="1" parent="_Dk9jYlxePAkPZQT1lbU-54">
          <mxGeometry x="-1" relative="1" as="geometry">
            <mxPoint x="-488" y="178" as="offset" />
          </mxGeometry>
        </mxCell>
        <mxCell id="_Dk9jYlxePAkPZQT1lbU-84" value="1" style="edgeLabel;resizable=0;html=1;align=left;verticalAlign=bottom;dashed=1;strokeColor=default;" connectable="0" vertex="1" parent="_Dk9jYlxePAkPZQT1lbU-54">
          <mxGeometry x="-1" relative="1" as="geometry">
            <mxPoint x="-258" y="418" as="offset" />
          </mxGeometry>
        </mxCell>
        <mxCell id="_Dk9jYlxePAkPZQT1lbU-86" value="0..1" style="edgeLabel;resizable=0;html=1;align=left;verticalAlign=bottom;dashed=1;strokeColor=default;" connectable="0" vertex="1" parent="_Dk9jYlxePAkPZQT1lbU-54">
          <mxGeometry x="-1" relative="1" as="geometry">
            <mxPoint x="-78" y="348" as="offset" />
          </mxGeometry>
        </mxCell>
        <mxCell id="_Dk9jYlxePAkPZQT1lbU-89" value="0..1" style="edgeLabel;resizable=0;html=1;align=left;verticalAlign=bottom;dashed=1;strokeColor=default;" connectable="0" vertex="1" parent="_Dk9jYlxePAkPZQT1lbU-54">
          <mxGeometry x="-1" relative="1" as="geometry">
            <mxPoint x="-448" y="68" as="offset" />
          </mxGeometry>
        </mxCell>
        <mxCell id="_Dk9jYlxePAkPZQT1lbU-90" value="1" style="edgeLabel;resizable=0;html=1;align=left;verticalAlign=bottom;dashed=1;strokeColor=default;" connectable="0" vertex="1" parent="_Dk9jYlxePAkPZQT1lbU-54">
          <mxGeometry x="-1" relative="1" as="geometry">
            <mxPoint x="-268" y="258" as="offset" />
          </mxGeometry>
        </mxCell>
        <mxCell id="_Dk9jYlxePAkPZQT1lbU-93" value="0..1" style="edgeLabel;resizable=0;html=1;align=left;verticalAlign=bottom;dashed=1;strokeColor=default;" connectable="0" vertex="1" parent="_Dk9jYlxePAkPZQT1lbU-54">
          <mxGeometry x="-1" relative="1" as="geometry">
            <mxPoint x="-178" y="68" as="offset" />
          </mxGeometry>
        </mxCell>
        <mxCell id="_Dk9jYlxePAkPZQT1lbU-56" value="" style="endArrow=none;endFill=0;html=1;edgeStyle=orthogonalEdgeStyle;align=left;verticalAlign=top;rounded=0;exitX=1;exitY=0.5;exitDx=0;exitDy=0;entryX=0.75;entryY=1;entryDx=0;entryDy=0;" edge="1" parent="WIyWlLk6GJQsqaUBKTNV-1" source="_Dk9jYlxePAkPZQT1lbU-51" target="_Dk9jYlxePAkPZQT1lbU-32">
          <mxGeometry x="-0.337" y="15" relative="1" as="geometry">
            <mxPoint x="490" y="192" as="sourcePoint" />
            <mxPoint x="380" y="360" as="targetPoint" />
            <Array as="points">
              <mxPoint x="770" y="455" />
              <mxPoint x="770" y="110" />
            </Array>
            <mxPoint as="offset" />
          </mxGeometry>
        </mxCell>
        <mxCell id="_Dk9jYlxePAkPZQT1lbU-57" value="1" style="edgeLabel;resizable=0;html=1;align=left;verticalAlign=bottom;dashed=1;strokeColor=default;" connectable="0" vertex="1" parent="_Dk9jYlxePAkPZQT1lbU-56">
          <mxGeometry x="-1" relative="1" as="geometry">
            <mxPoint x="32" y="-325" as="offset" />
          </mxGeometry>
        </mxCell>
        <mxCell id="_Dk9jYlxePAkPZQT1lbU-58" value="" style="endArrow=none;endFill=0;html=1;edgeStyle=orthogonalEdgeStyle;align=left;verticalAlign=top;rounded=0;exitX=0.5;exitY=1;exitDx=0;exitDy=0;entryX=0.5;entryY=0;entryDx=0;entryDy=0;" edge="1" parent="WIyWlLk6GJQsqaUBKTNV-1" source="_Dk9jYlxePAkPZQT1lbU-27" target="_Dk9jYlxePAkPZQT1lbU-41">
          <mxGeometry x="-0.4313" y="-22" relative="1" as="geometry">
            <mxPoint x="490" y="192" as="sourcePoint" />
            <mxPoint x="396" y="290" as="targetPoint" />
            <Array as="points">
              <mxPoint x="590" y="240" />
              <mxPoint x="590" y="310" />
              <mxPoint x="630" y="310" />
            </Array>
            <mxPoint as="offset" />
          </mxGeometry>
        </mxCell>
        <mxCell id="_Dk9jYlxePAkPZQT1lbU-59" value="0..*" style="edgeLabel;resizable=0;html=1;align=left;verticalAlign=bottom;dashed=1;strokeColor=default;" connectable="0" vertex="1" parent="_Dk9jYlxePAkPZQT1lbU-58">
          <mxGeometry x="-1" relative="1" as="geometry">
            <mxPoint x="41" y="120" as="offset" />
          </mxGeometry>
        </mxCell>
        <mxCell id="_Dk9jYlxePAkPZQT1lbU-60" value="1" style="edgeLabel;resizable=0;html=1;align=left;verticalAlign=bottom;dashed=1;strokeColor=default;" connectable="0" vertex="1" parent="_Dk9jYlxePAkPZQT1lbU-58">
          <mxGeometry x="-1" relative="1" as="geometry">
            <mxPoint x="-9" y="20" as="offset" />
          </mxGeometry>
        </mxCell>
        <mxCell id="_Dk9jYlxePAkPZQT1lbU-63" value="StudentImpl" style="swimlane;fontStyle=2;align=center;verticalAlign=top;childLayout=stackLayout;horizontal=1;startSize=30;horizontalStack=0;resizeParent=1;resizeLast=0;collapsible=1;marginBottom=0;rounded=0;shadow=0;strokeWidth=1;strokeColor=default;" vertex="1" parent="WIyWlLk6GJQsqaUBKTNV-1">
          <mxGeometry x="91" y="290" width="198" height="60" as="geometry">
            <mxRectangle x="230" y="140" width="160" height="26" as="alternateBounds" />
          </mxGeometry>
        </mxCell>
        <mxCell id="_Dk9jYlxePAkPZQT1lbU-64" value="- 현재 학생들의 배열: Student[]" style="text;align=left;verticalAlign=top;spacingLeft=4;spacingRight=4;overflow=hidden;rotatable=0;points=[[0,0.5],[1,0.5]];portConstraint=eastwest;" vertex="1" parent="_Dk9jYlxePAkPZQT1lbU-63">
          <mxGeometry y="30" width="198" height="24" as="geometry" />
        </mxCell>
        <mxCell id="_Dk9jYlxePAkPZQT1lbU-65" value="ProfessorImpl" style="swimlane;fontStyle=2;align=center;verticalAlign=top;childLayout=stackLayout;horizontal=1;startSize=30;horizontalStack=0;resizeParent=1;resizeLast=0;collapsible=1;marginBottom=0;rounded=0;shadow=0;strokeWidth=1;strokeColor=default;" vertex="1" parent="WIyWlLk6GJQsqaUBKTNV-1">
          <mxGeometry x="315" y="310" width="198" height="120" as="geometry">
            <mxRectangle x="230" y="140" width="160" height="26" as="alternateBounds" />
          </mxGeometry>
        </mxCell>
        <mxCell id="_Dk9jYlxePAkPZQT1lbU-66" value="- 현재 교수들의 배열: Professor[]" style="text;align=left;verticalAlign=top;spacingLeft=4;spacingRight=4;overflow=hidden;rotatable=0;points=[[0,0.5],[1,0.5]];portConstraint=eastwest;" vertex="1" parent="_Dk9jYlxePAkPZQT1lbU-65">
          <mxGeometry y="30" width="198" height="24" as="geometry" />
        </mxCell>
        <mxCell id="_Dk9jYlxePAkPZQT1lbU-73" value="" style="line;html=1;strokeWidth=1;align=left;verticalAlign=middle;spacingTop=-1;spacingLeft=3;spacingRight=3;rotatable=0;labelPosition=right;points=[];portConstraint=eastwest;strokeColor=default;" vertex="1" parent="_Dk9jYlxePAkPZQT1lbU-65">
          <mxGeometry y="54" width="198" height="10" as="geometry" />
        </mxCell>
        <mxCell id="_Dk9jYlxePAkPZQT1lbU-2" value="+ 교수평판 조회 (String): Professor" style="text;align=left;verticalAlign=top;spacingLeft=4;spacingRight=4;overflow=hidden;rotatable=0;points=[[0,0.5],[1,0.5]];portConstraint=eastwest;" vertex="1" parent="_Dk9jYlxePAkPZQT1lbU-65">
          <mxGeometry y="64" width="198" height="30" as="geometry" />
        </mxCell>
        <mxCell id="_Dk9jYlxePAkPZQT1lbU-1" value="+ 교수조회 (String): Professor" style="text;align=left;verticalAlign=top;spacingLeft=4;spacingRight=4;overflow=hidden;rotatable=0;points=[[0,0.5],[1,0.5]];portConstraint=eastwest;" vertex="1" parent="_Dk9jYlxePAkPZQT1lbU-65">
          <mxGeometry y="94" width="198" height="26" as="geometry" />
        </mxCell>
        <mxCell id="_Dk9jYlxePAkPZQT1lbU-69" value="LectureImpl" style="swimlane;fontStyle=2;align=center;verticalAlign=top;childLayout=stackLayout;horizontal=1;startSize=30;horizontalStack=0;resizeParent=1;resizeLast=0;collapsible=1;marginBottom=0;rounded=0;shadow=0;strokeWidth=1;strokeColor=default;" vertex="1" parent="WIyWlLk6GJQsqaUBKTNV-1">
          <mxGeometry x="450" y="570" width="198" height="120" as="geometry">
            <mxRectangle x="230" y="140" width="160" height="26" as="alternateBounds" />
          </mxGeometry>
        </mxCell>
        <mxCell id="_Dk9jYlxePAkPZQT1lbU-70" value="- 현재 강의들의 배열: Lecture[]" style="text;align=left;verticalAlign=top;spacingLeft=4;spacingRight=4;overflow=hidden;rotatable=0;points=[[0,0.5],[1,0.5]];portConstraint=eastwest;" vertex="1" parent="_Dk9jYlxePAkPZQT1lbU-69">
          <mxGeometry y="30" width="198" height="24" as="geometry" />
        </mxCell>
        <mxCell id="_Dk9jYlxePAkPZQT1lbU-74" value="" style="line;html=1;strokeWidth=1;align=left;verticalAlign=middle;spacingTop=-1;spacingLeft=3;spacingRight=3;rotatable=0;labelPosition=right;points=[];portConstraint=eastwest;strokeColor=default;" vertex="1" parent="_Dk9jYlxePAkPZQT1lbU-69">
          <mxGeometry y="54" width="198" height="10" as="geometry" />
        </mxCell>
        <mxCell id="_Dk9jYlxePAkPZQT1lbU-0" value="+ 과목조회 (String): Lecture" style="text;align=left;verticalAlign=top;spacingLeft=4;spacingRight=4;overflow=hidden;rotatable=0;points=[[0,0.5],[1,0.5]];portConstraint=eastwest;" vertex="1" parent="_Dk9jYlxePAkPZQT1lbU-69">
          <mxGeometry y="64" width="198" height="22" as="geometry" />
        </mxCell>
        <mxCell id="_Dk9jYlxePAkPZQT1lbU-3" value="+ 과목평판 조회 (String): Lecture" style="text;align=left;verticalAlign=top;spacingLeft=4;spacingRight=4;overflow=hidden;rotatable=0;points=[[0,0.5],[1,0.5]];portConstraint=eastwest;" vertex="1" parent="_Dk9jYlxePAkPZQT1lbU-69">
          <mxGeometry y="86" width="198" height="26" as="geometry" />
        </mxCell>
        <mxCell id="_Dk9jYlxePAkPZQT1lbU-75" value="" style="endArrow=none;endFill=0;html=1;edgeStyle=orthogonalEdgeStyle;align=left;verticalAlign=top;rounded=0;exitX=0;exitY=0.5;exitDx=0;exitDy=0;entryX=0;entryY=0.5;entryDx=0;entryDy=0;" edge="1" parent="WIyWlLk6GJQsqaUBKTNV-1" source="_Dk9jYlxePAkPZQT1lbU-61" target="_Dk9jYlxePAkPZQT1lbU-19">
          <mxGeometry x="-0.337" y="15" relative="1" as="geometry">
            <mxPoint x="728" y="455" as="sourcePoint" />
            <mxPoint x="754" y="110" as="targetPoint" />
            <Array as="points">
              <mxPoint x="50" y="539" />
              <mxPoint x="50" y="63" />
            </Array>
            <mxPoint as="offset" />
          </mxGeometry>
        </mxCell>
        <mxCell id="_Dk9jYlxePAkPZQT1lbU-79" value="" style="edgeStyle=orthogonalEdgeStyle;rounded=0;orthogonalLoop=1;jettySize=auto;html=1;endArrow=none;endFill=0;entryX=0.5;entryY=0;entryDx=0;entryDy=0;exitX=0.5;exitY=1;exitDx=0;exitDy=0;" edge="1" parent="WIyWlLk6GJQsqaUBKTNV-1" source="_Dk9jYlxePAkPZQT1lbU-63" target="zkfFHV4jXpPFQw0GAbJ--0">
          <mxGeometry relative="1" as="geometry">
            <mxPoint x="190" y="420" as="sourcePoint" />
          </mxGeometry>
        </mxCell>
        <mxCell id="_Dk9jYlxePAkPZQT1lbU-83" value="" style="edgeStyle=orthogonalEdgeStyle;rounded=0;orthogonalLoop=1;jettySize=auto;html=1;endArrow=none;endFill=0;entryX=0;entryY=0.5;entryDx=0;entryDy=0;exitX=1;exitY=0.5;exitDx=0;exitDy=0;" edge="1" parent="WIyWlLk6GJQsqaUBKTNV-1" source="_Dk9jYlxePAkPZQT1lbU-68" target="_Dk9jYlxePAkPZQT1lbU-70">
          <mxGeometry relative="1" as="geometry">
            <mxPoint x="390" y="550" as="sourcePoint" />
            <mxPoint x="410" y="560" as="targetPoint" />
            <Array as="points">
              <mxPoint x="340" y="588" />
              <mxPoint x="450" y="588" />
            </Array>
          </mxGeometry>
        </mxCell>
        <mxCell id="_Dk9jYlxePAkPZQT1lbU-85" value="" style="edgeStyle=orthogonalEdgeStyle;rounded=0;orthogonalLoop=1;jettySize=auto;html=1;endArrow=none;endFill=0;entryX=0.525;entryY=1.077;entryDx=0;entryDy=0;entryPerimeter=0;" edge="1" parent="WIyWlLk6GJQsqaUBKTNV-1" target="_Dk9jYlxePAkPZQT1lbU-1">
          <mxGeometry relative="1" as="geometry">
            <mxPoint x="340" y="540" as="sourcePoint" />
            <mxPoint x="450" y="612" as="targetPoint" />
            <Array as="points">
              <mxPoint x="340" y="540" />
              <mxPoint x="420" y="540" />
            </Array>
          </mxGeometry>
        </mxCell>
        <mxCell id="_Dk9jYlxePAkPZQT1lbU-87" value="" style="edgeStyle=orthogonalEdgeStyle;rounded=0;orthogonalLoop=1;jettySize=auto;html=1;endArrow=none;endFill=0;entryX=0.5;entryY=0;entryDx=0;entryDy=0;exitX=0.359;exitY=1.077;exitDx=0;exitDy=0;exitPerimeter=0;" edge="1" parent="WIyWlLk6GJQsqaUBKTNV-1" source="_Dk9jYlxePAkPZQT1lbU-53" target="_Dk9jYlxePAkPZQT1lbU-69">
          <mxGeometry relative="1" as="geometry">
            <mxPoint x="340" y="591" as="sourcePoint" />
            <mxPoint x="450" y="612" as="targetPoint" />
            <Array as="points">
              <mxPoint x="601" y="540" />
              <mxPoint x="549" y="540" />
            </Array>
          </mxGeometry>
        </mxCell>
        <mxCell id="_Dk9jYlxePAkPZQT1lbU-88" value="" style="edgeStyle=orthogonalEdgeStyle;rounded=0;orthogonalLoop=1;jettySize=auto;html=1;endArrow=none;endFill=0;entryX=0.75;entryY=0;entryDx=0;entryDy=0;exitX=0.5;exitY=1;exitDx=0;exitDy=0;" edge="1" parent="WIyWlLk6GJQsqaUBKTNV-1" source="_Dk9jYlxePAkPZQT1lbU-23" target="_Dk9jYlxePAkPZQT1lbU-63">
          <mxGeometry relative="1" as="geometry">
            <mxPoint x="220" y="250" as="sourcePoint" />
            <mxPoint x="230" y="470" as="targetPoint" />
            <Array as="points">
              <mxPoint x="240" y="240" />
              <mxPoint x="240" y="270" />
            </Array>
          </mxGeometry>
        </mxCell>
        <mxCell id="_Dk9jYlxePAkPZQT1lbU-92" value="" style="edgeStyle=orthogonalEdgeStyle;rounded=0;orthogonalLoop=1;jettySize=auto;html=1;endArrow=none;endFill=0;entryX=0.75;entryY=0;entryDx=0;entryDy=0;exitX=0.25;exitY=1;exitDx=0;exitDy=0;" edge="1" parent="WIyWlLk6GJQsqaUBKTNV-1" source="_Dk9jYlxePAkPZQT1lbU-27" target="_Dk9jYlxePAkPZQT1lbU-65">
          <mxGeometry relative="1" as="geometry">
            <mxPoint x="340" y="540" as="sourcePoint" />
            <mxPoint x="418.95000000000005" y="432.00199999999995" as="targetPoint" />
            <Array as="points">
              <mxPoint x="540" y="270" />
              <mxPoint x="460" y="270" />
              <mxPoint x="460" y="310" />
            </Array>
          </mxGeometry>
        </mxCell>
      </root>
    </mxGraphModel>
  </diagram>
</mxfile>
